<?xml version="1.0" encoding="UTF-8"?>
<svg id="Layer_2" data-name="Layer 2" xmlns="http://www.w3.org/2000/svg" xmlns:xlink="http://www.w3.org/1999/xlink" viewBox="0 0 1905.83 560.8">
  <defs>
    <style>
      .cls-1, .cls-2 {
        stroke: red;
        stroke-width: 1.5px;
      }

      .cls-1, .cls-2, .cls-3, .cls-4, .cls-5, .cls-6, .cls-7, .cls-8, .cls-9, .cls-10 {
        stroke-miterlimit: 10;
      }

      .cls-1, .cls-2, .cls-10 {
        fill: none;
      }

      .cls-2 {
        stroke-dasharray: 0 0 5 3;
      }

      .cls-11 {
        fill: url(#linear-gradient);
      }

      .cls-11, .cls-9 {
        opacity: .19;
      }

      .cls-11, .cls-12, .cls-13, .cls-14, .cls-15, .cls-16 {
        stroke-width: 0px;
      }

      .cls-17 {
        font-family: ProductSans-Regular, 'Product Sans';
        font-size: 21px;
      }

      .cls-3 {
        fill: url(#linear-gradient-3);
        stroke: #0733ff;
        stroke-width: 1.12px;
      }

      .cls-4 {
        fill: url(#linear-gradient-4);
      }

      .cls-4, .cls-5, .cls-6, .cls-7, .cls-8, .cls-9 {
        stroke: #fff;
      }

      .cls-5 {
        fill: #c3cfde;
      }

      .cls-6 {
        fill: #e0e0cf;
      }

      .cls-7 {
        fill: #aac1cd;
      }

      .cls-8 {
        fill: #7aa277;
      }

      .cls-9 {
        fill: url(#linear-gradient-2);
        stroke-width: .95px;
      }

      .cls-18 {
        letter-spacing: 0em;
      }

      .cls-10 {
        stroke: #414042;
        stroke-width: .95px;
      }

      .cls-12 {
        fill: #958b89;
      }

      .cls-13 {
        fill: #2f3639;
      }

      .cls-14 {
        fill: #d0d3d9;
      }

      .cls-15 {
        fill: #b0b0b0;
      }

      .cls-16 {
        fill: #969696;
      }

      .cls-19 {
        letter-spacing: 0em;
      }
    </style>
    <linearGradient id="linear-gradient" x1="952.63" y1="0" x2="952.63" y2="557.76" gradientUnits="userSpaceOnUse">
      <stop offset="0" stop-color="#88b6f7"/>
      <stop offset=".46" stop-color="#f5f6f7"/>
      <stop offset="1" stop-color="#e8eef7"/>
    </linearGradient>
    <linearGradient id="linear-gradient-2" x1="952.69" y1="109.62" x2="952.69" y2="522.96" gradientUnits="userSpaceOnUse">
      <stop offset="0" stop-color="#b0fda2"/>
      <stop offset="1" stop-color="#376e2d"/>
    </linearGradient>
    <linearGradient id="linear-gradient-3" x1="914.31" y1="476.84" x2="914.31" y2="518.78" gradientUnits="userSpaceOnUse">
      <stop offset="0" stop-color="#9dceff"/>
      <stop offset="1" stop-color="#c7e3ff"/>
    </linearGradient>
    <linearGradient id="linear-gradient-4" x1="953.07" y1="397.62" x2="953.07" y2="560.3" gradientUnits="userSpaceOnUse">
      <stop offset="0" stop-color="#b69b83"/>
      <stop offset="1" stop-color="#ece3dc"/>
    </linearGradient>
  </defs>

  <g id="Background">
    <rect id="Himmel" class="cls-11" x=".02" width="1905.22" height="557.76"/>
    <path id="Natur" class="cls-9" d="m1.13,135.19h181.05c3.82,0,7.6.59,11.2,1.75l152.83,49.08c3.12,1,6.38,1.58,9.68,1.71l110.67,4.55,239.18,16.65,150.63,4.7c1.21.04,2.42.02,3.63-.06l62.73-4.21c4.24-.28,8.5.17,12.56,1.32l186.36,53.27c4.77,1.36,9.81,1.74,14.76,1.11,18.94-2.42,67.64-8.55,73.98-8.55,6.66,0,71.48,10.19,91.43,13.35,3.86.61,7.8.6,11.66-.02l57.4-9.28c6.74-1.09,12.95-4.02,17.79-8.41h0c5.39-4.88,12.46-7.95,20.05-8.7,41.82-4.13,181.73-17.87,190.67-17.87,6.86,0,18.18-20.23,25.23-34.31,4.22-8.43,12.46-14.66,22.39-16.91l104.6-23.67c3.63-.82,7.08-2.19,10.21-4.04l54.23-32.1c6.09-3.6,13.3-5.31,20.56-4.87l67.67,4.08v409.18H1.33l-.2-387.77Z"/>
  </g>

  <g id="Water">
    <rect id="WaterRect" class="cls-3" x="277.28" y="476.84" width="1274.04" height="41.94"/>
  </g>

  <g id="Foreground">
    <path id="Bunn" class="cls-4" d="m.8,407.61l275.12-9.76,23.26,91c5.43,18.51,22.42,31.23,41.71,31.23h1147.78c19.48,0,36.54-13.04,41.66-31.83l21.25-90.61,353.74,12.61v150.06H.8v-152.7Z"/>
    <g id="Bro">
      <rect id="Bropilar1" class="cls-15" x="1240.03" y="410.13" width="45.74" height="108.24"/>
      <rect id="Bropilar2" class="cls-15" x="525.18" y="410.13" width="45.74" height="108.83"/>
      <rect id="Veibane" class="cls-16" x="276" y="397.48" width="1275.59" height="12.76"/>
      <g id="Rekkverk">
        <rect id="Rekkverk-2" data-name="Rekkverk" class="cls-10" x="276" y="360.44" width="1275.59" height="33.02"/>
        <line class="cls-10" x1="292.32" y1="360.51" x2="292.32" y2="393.59"/>
        <line class="cls-10" x1="310.6" y1="360.51" x2="310.6" y2="393.59"/>
        <line class="cls-10" x1="328.89" y1="360.51" x2="328.89" y2="393.59"/>
        <line class="cls-10" x1="347.17" y1="360.51" x2="347.17" y2="393.59"/>
        <line class="cls-10" x1="365.45" y1="360.51" x2="365.45" y2="393.59"/>
        <line class="cls-10" x1="383.73" y1="360.51" x2="383.73" y2="393.59"/>
        <line class="cls-10" x1="402.02" y1="360.51" x2="402.02" y2="393.59"/>
        <line class="cls-10" x1="420.3" y1="360.51" x2="420.3" y2="393.59"/>
        <line class="cls-10" x1="438.58" y1="360.51" x2="438.58" y2="393.59"/>
        <line class="cls-10" x1="456.86" y1="360.51" x2="456.86" y2="393.59"/>
        <line class="cls-10" x1="475.15" y1="360.51" x2="475.15" y2="393.59"/>
        <line class="cls-10" x1="493.43" y1="360.51" x2="493.43" y2="393.59"/>
        <line class="cls-10" x1="511.71" y1="360.51" x2="511.71" y2="393.59"/>
        <line class="cls-10" x1="529.99" y1="360.51" x2="529.99" y2="393.59"/>
        <line class="cls-10" x1="548.28" y1="360.51" x2="548.28" y2="393.59"/>
        <line class="cls-10" x1="566.56" y1="360.51" x2="566.56" y2="393.59"/>
        <line class="cls-10" x1="584.84" y1="360.51" x2="584.84" y2="393.59"/>
        <line class="cls-10" x1="603.12" y1="360.51" x2="603.12" y2="393.59"/>
        <line class="cls-10" x1="621.41" y1="360.51" x2="621.41" y2="393.59"/>
        <line class="cls-10" x1="639.69" y1="360.51" x2="639.69" y2="393.59"/>
        <line class="cls-10" x1="657.97" y1="360.51" x2="657.97" y2="393.59"/>
        <line class="cls-10" x1="676.25" y1="360.51" x2="676.25" y2="393.59"/>
        <line class="cls-10" x1="694.54" y1="360.51" x2="694.54" y2="393.59"/>
        <line class="cls-10" x1="712.82" y1="360.51" x2="712.82" y2="393.59"/>
        <line class="cls-10" x1="731.1" y1="360.51" x2="731.1" y2="393.59"/>
        <line class="cls-10" x1="749.38" y1="360.51" x2="749.38" y2="393.59"/>
        <line class="cls-10" x1="767.67" y1="360.51" x2="767.67" y2="393.59"/>
        <line class="cls-10" x1="785.95" y1="360.51" x2="785.95" y2="393.59"/>
        <line class="cls-10" x1="804.23" y1="360.51" x2="804.23" y2="393.59"/>
        <line class="cls-10" x1="822.51" y1="360.51" x2="822.51" y2="393.59"/>
        <line class="cls-10" x1="840.8" y1="360.51" x2="840.8" y2="393.59"/>
        <line class="cls-10" x1="859.08" y1="360.51" x2="859.08" y2="393.59"/>
        <line class="cls-10" x1="877.36" y1="360.51" x2="877.36" y2="393.59"/>
        <line class="cls-10" x1="895.64" y1="360.51" x2="895.64" y2="393.59"/>
        <line class="cls-10" x1="913.93" y1="360.51" x2="913.93" y2="393.59"/>
        <line class="cls-10" x1="932.21" y1="360.51" x2="932.21" y2="393.59"/>
        <line class="cls-10" x1="950.49" y1="360.51" x2="950.49" y2="393.59"/>
        <line class="cls-10" x1="968.77" y1="360.51" x2="968.77" y2="393.59"/>
        <line class="cls-10" x1="987.06" y1="360.51" x2="987.06" y2="393.59"/>
        <line class="cls-10" x1="1005.34" y1="360.51" x2="1005.34" y2="393.59"/>
        <line class="cls-10" x1="1023.62" y1="360.51" x2="1023.62" y2="393.59"/>
        <line class="cls-10" x1="1041.9" y1="360.51" x2="1041.9" y2="393.59"/>
        <line class="cls-10" x1="1060.19" y1="360.51" x2="1060.19" y2="393.59"/>
        <line class="cls-10" x1="1078.47" y1="360.51" x2="1078.47" y2="393.59"/>
        <line class="cls-10" x1="1096.75" y1="360.51" x2="1096.75" y2="393.59"/>
        <line class="cls-10" x1="1115.03" y1="360.51" x2="1115.03" y2="393.59"/>
        <line class="cls-10" x1="1133.32" y1="360.51" x2="1133.32" y2="393.59"/>
        <line class="cls-10" x1="1151.6" y1="360.51" x2="1151.6" y2="393.59"/>
        <line class="cls-10" x1="1169.88" y1="360.51" x2="1169.88" y2="393.59"/>
        <line class="cls-10" x1="1188.16" y1="360.51" x2="1188.16" y2="393.59"/>
        <line class="cls-10" x1="1206.45" y1="360.51" x2="1206.45" y2="393.59"/>
        <line class="cls-10" x1="1224.73" y1="360.51" x2="1224.73" y2="393.59"/>
        <line class="cls-10" x1="1243.01" y1="360.51" x2="1243.01" y2="393.59"/>
        <line class="cls-10" x1="1261.29" y1="360.51" x2="1261.29" y2="393.59"/>
        <line class="cls-10" x1="1279.58" y1="360.51" x2="1279.58" y2="393.59"/>
        <line class="cls-10" x1="1297.86" y1="360.51" x2="1297.86" y2="393.59"/>
        <line class="cls-10" x1="1316.14" y1="360.51" x2="1316.14" y2="393.59"/>
        <line class="cls-10" x1="1334.42" y1="360.51" x2="1334.42" y2="393.59"/>
        <line class="cls-10" x1="1352.71" y1="360.51" x2="1352.71" y2="393.59"/>
        <line class="cls-10" x1="1370.99" y1="360.51" x2="1370.99" y2="393.59"/>
        <line class="cls-10" x1="1389.27" y1="360.51" x2="1389.27" y2="393.59"/>
        <line class="cls-10" x1="1407.55" y1="360.51" x2="1407.55" y2="393.59"/>
        <line class="cls-10" x1="1425.84" y1="360.51" x2="1425.84" y2="393.59"/>
        <line class="cls-10" x1="1444.12" y1="360.51" x2="1444.12" y2="393.59"/>
        <line class="cls-10" x1="1462.4" y1="360.51" x2="1462.4" y2="393.59"/>
        <line class="cls-10" x1="1480.68" y1="360.51" x2="1480.68" y2="393.59"/>
        <line class="cls-10" x1="1498.97" y1="360.51" x2="1498.97" y2="393.59"/>
        <line class="cls-10" x1="1517.25" y1="360.51" x2="1517.25" y2="393.59"/>
        <line class="cls-10" x1="1535.53" y1="360.51" x2="1535.53" y2="393.59"/>
      </g>
    </g>
    <g id="Rådhus">
      <rect class="cls-14" x="1.01" y="281.39" width="170.73" height="148.25"/>
      <g>
        <g>
          <rect class="cls-13" x="11.95" y="355.16" width="11.81" height="7.09"/>
          <rect class="cls-13" x="24.8" y="355.16" width="11.81" height="7.09"/>
          <rect class="cls-13" x="11.95" y="363.86" width="11.81" height="7.09"/>
          <rect class="cls-13" x="24.8" y="363.86" width="11.81" height="7.09"/>
        </g>
        <g>
          <rect class="cls-13" x="11.95" y="388.5" width="11.81" height="7.09"/>
          <rect class="cls-13" x="24.8" y="388.5" width="11.81" height="7.09"/>
          <rect class="cls-13" x="11.95" y="397.21" width="11.81" height="7.09"/>
          <rect class="cls-13" x="24.8" y="397.21" width="11.81" height="7.09"/>
        </g>
        <g>
          <rect class="cls-13" x="44.02" y="355.16" width="11.81" height="7.09"/>
          <rect class="cls-13" x="56.87" y="355.16" width="11.81" height="7.09"/>
          <rect class="cls-13" x="44.02" y="363.86" width="11.81" height="7.09"/>
          <rect class="cls-13" x="56.87" y="363.86" width="11.81" height="7.09"/>
        </g>
        <g>
          <rect class="cls-13" x="44.02" y="388.5" width="11.81" height="7.09"/>
          <rect class="cls-13" x="56.87" y="388.5" width="11.81" height="7.09"/>
          <rect class="cls-13" x="44.02" y="397.21" width="11.81" height="7.09"/>
          <rect class="cls-13" x="56.87" y="397.21" width="11.81" height="7.09"/>
        </g>
        <g>
          <rect class="cls-13" x="75.41" y="355.16" width="11.81" height="7.09"/>
          <rect class="cls-13" x="88.26" y="355.16" width="11.81" height="7.09"/>
          <rect class="cls-13" x="75.41" y="363.86" width="11.81" height="7.09"/>
          <rect class="cls-13" x="88.26" y="363.86" width="11.81" height="7.09"/>
        </g>
        <g>
          <rect class="cls-13" x="75.41" y="388.5" width="11.81" height="7.09"/>
          <rect class="cls-13" x="88.26" y="388.5" width="11.81" height="7.09"/>
          <rect class="cls-13" x="75.41" y="397.21" width="11.81" height="7.09"/>
          <rect class="cls-13" x="88.26" y="397.21" width="11.81" height="7.09"/>
        </g>
        <g>
          <rect class="cls-13" x="105.58" y="355.16" width="11.81" height="7.09"/>
          <rect class="cls-13" x="118.44" y="355.16" width="11.81" height="7.09"/>
          <rect class="cls-13" x="105.58" y="363.86" width="11.81" height="7.09"/>
          <rect class="cls-13" x="118.44" y="363.86" width="11.81" height="7.09"/>
        </g>
        <g>
          <rect class="cls-13" x="105.58" y="388.5" width="11.81" height="7.09"/>
          <rect class="cls-13" x="118.44" y="388.5" width="11.81" height="7.09"/>
          <rect class="cls-13" x="105.58" y="397.21" width="11.81" height="7.09"/>
          <rect class="cls-13" x="118.44" y="397.21" width="11.81" height="7.09"/>
        </g>
        <g>
          <rect class="cls-13" x="137.98" y="355.16" width="11.81" height="7.09"/>
          <rect class="cls-13" x="150.83" y="355.16" width="11.81" height="7.09"/>
          <rect class="cls-13" x="137.98" y="363.86" width="11.81" height="7.09"/>
          <rect class="cls-13" x="150.83" y="363.86" width="11.81" height="7.09"/>
        </g>
        <g>
          <rect class="cls-13" x="137.98" y="388.5" width="11.81" height="7.09"/>
          <rect class="cls-13" x="150.83" y="388.5" width="11.81" height="7.09"/>
          <rect class="cls-13" x="137.98" y="397.21" width="11.81" height="7.09"/>
          <rect class="cls-13" x="150.83" y="397.21" width="11.81" height="7.09"/>
        </g>
      </g>
      <polygon class="cls-12" points="86.94 289.22 1.01 331.79 172.87 331.79 86.94 289.22"/>
      <polygon class="cls-12" points="86.73 238.8 1.45 281.04 172 281.04 86.73 238.8"/>
      <text class="cls-17" transform="translate(51.77 217.78)"><tspan class="cls-19" x="0" y="0">Rå</tspan><tspan x="22.64" y="0">dh</tspan><tspan class="cls-19" x="46.12" y="0">u</tspan><tspan x="57.39" y="0">s</tspan></text>
    </g>
    <g id="NorDan">
      <rect class="cls-5" x="1637.65" y="232.47" width="266.79" height="198.93"/>
      <rect class="cls-8" x="1637.65" y="315.13" width="233.75" height="37.15"/>
      <rect class="cls-7" x="1637.65" y="232.8" width="266.54" height="14.1"/>
      <rect class="cls-6" x="1637.65" y="337.67" width="233.24" height="93.72"/>
      <g>
        <rect class="cls-13" x="1649.72" y="247.6" width="21.33" height="33.78"/>
        <rect class="cls-13" x="1685.43" y="247.6" width="21.33" height="33.78"/>
        <rect class="cls-13" x="1721.14" y="247.6" width="21.33" height="33.78"/>
        <rect class="cls-13" x="1756.85" y="247.6" width="21.33" height="33.78"/>
        <rect class="cls-13" x="1792.56" y="247.6" width="21.33" height="33.78"/>
        <rect class="cls-13" x="1828.27" y="247.6" width="21.33" height="33.78"/>
        <rect class="cls-13" x="1863.98" y="247.6" width="21.33" height="33.78"/>
        <rect class="cls-13" x="1756.65" y="360.96" width="43.1" height="35.02"/>
        <rect class="cls-13" x="1811.46" y="360.96" width="43.1" height="35.02"/>
      </g>
      <text class="cls-17" transform="translate(1639.65 217.78)"><tspan x="0" y="0">N</tspan><tspan class="cls-18" x="14.62" y="0">o</tspan><tspan x="26.17" y="0">rDan</tspan></text>
    </g>
  </g>
</svg>
