<svg xmlns="http://www.w3.org/2000/svg" viewBox="0 0 20.25 4.69">
    <title>intoto-logo</title>
    <path fill="#fff" d="M.89.93h.4V4.6H0V2.25Z"/>
    <path fill="#fff" d="M2.11.93H3.4V2l.7-1A1.32,1.32,0,0,1,5.75,2.2V4.6H4.46V2.66c0-.4-.22-.62-.52-.62a1.08,1.08,0,0,0-.54.15V4.6H2.11Z"/>
    <path fill="#fff" d="M6.61,3.46V2H6.18L7.5,0h.4V.93H9.19l-.7,1H7.9V3.21c0,.26.12.37.35.37a1.18,1.18,0,0,0,.49-.12v1a1.8,1.8,0,0,1-.89.21A1.08,1.08,0,0,1,6.61,3.46Z"/>
    <path fill="#fff" d="M13.66,3.46V2h-.43l1.32-2H15V.93h1.29l-.7,1H15V3.21c0,.26.12.37.36.37a1.14,1.14,0,0,0,.48-.12v1a1.8,1.8,0,0,1-.89.21A1.08,1.08,0,0,1,13.66,3.46Z"/>
    <path fill="#fff" d="M9.06,2.78h0a2,2,0,0,1,2-1.92,1.94,1.94,0,0,1,2,1.91h0a2,2,0,0,1-2,1.92A1.94,1.94,0,0,1,9.06,2.78Zm2.81,0h0a.8.8,0,0,0-.79-.83.77.77,0,0,0-.76.82h0a.79.79,0,0,0,.78.83A.77.77,0,0,0,11.87,2.78Z"/>
    <path fill="#fff" d="M16.19,2.78h0a2,2,0,0,1,4.06,0h0a2,2,0,0,1-2,1.92A1.93,1.93,0,0,1,16.19,2.78Zm2.8,0h0a.8.8,0,0,0-.78-.83.78.78,0,0,0-.77.82h0a.8.8,0,0,0,.78.83A.77.77,0,0,0,19,2.78Z"/>
</svg>
